<svg width="112" height="32" viewBox="0 0 112 32" fill="none" xmlns="http://www.w3.org/2000/svg">
<path d="M109.581 26.1445C110.279 26.1445 111.098 26.0246 111.715 25.8786C111.777 25.8637 111.821 25.8079 111.821 25.7437V23.3702C111.821 23.2791 111.735 23.2121 111.646 23.2363C111.305 23.3293 110.913 23.4102 110.455 23.4102C109.313 23.4102 108.887 23.0299 108.887 22.111V17.4068H111.639C111.715 17.4068 111.777 17.3455 111.777 17.2692V14.5423C111.777 14.4661 111.715 14.4047 111.639 14.4047H108.887V10.4427C108.887 10.3665 108.826 10.3051 108.749 10.3051H105.439C105.363 10.3051 105.302 10.3665 105.302 10.4427V14.4047H103.669C103.593 14.4047 103.532 14.4661 103.532 14.5423V17.2692C103.532 17.3455 103.593 17.4068 103.669 17.4068H105.302V22.3574C105.302 24.8434 106.646 26.1427 109.58 26.1427M95.0917 25.9883H98.4017C98.4779 25.9883 98.5393 25.9269 98.5393 25.8507V20.343C98.5393 18.4392 99.4805 17.4087 101.586 17.4087H102.188C102.264 17.4087 102.325 17.3473 102.325 17.2711V14.4763C102.325 14.4 102.264 14.3387 102.188 14.3387H101.675C99.9734 14.3387 99.0322 15.0111 98.45 16.4889L98.4286 14.5414C98.4286 14.4661 98.3663 14.4056 98.291 14.4056H95.0917C95.0154 14.4056 94.954 14.467 94.954 14.5433V25.8497C94.954 25.926 95.0154 25.9874 95.0917 25.9874V25.9883ZM87.7193 23.7032C86.5772 23.7032 85.9271 23.1656 85.9271 22.3593C85.9271 21.553 86.5995 20.9484 88.0773 20.9484C88.7265 20.9484 89.3319 21.06 90.0034 21.3065V21.7994C90.0034 22.9415 89.0399 23.7032 87.7183 23.7032M86.4646 26.2794C88.1443 26.2794 89.3319 25.5623 90.0936 24.3077L90.2387 25.8637C90.2452 25.9344 90.3048 25.9883 90.3754 25.9883H93.3609C93.4371 25.9883 93.4985 25.9269 93.4985 25.8507V18.0579C93.4985 15.6388 91.5268 14.1154 88.3684 14.1154C85.21 14.1154 83.2607 15.4435 82.9863 17.6821C82.9761 17.7631 83.0412 17.8337 83.123 17.8337H86.2442C86.3075 17.8337 86.3605 17.79 86.3772 17.7286C86.5669 17.0348 87.1687 16.6693 88.2782 16.6693C89.4426 16.6693 90.0034 17.1846 90.0034 18.0356V19.3125C89.2864 18.9768 88.3461 18.8196 87.4495 18.8196C84.4483 18.8196 82.4766 20.3653 82.4766 22.6727C82.4766 24.8453 84.1563 26.2794 86.4637 26.2794M63.3058 25.9883H66.6158C66.692 25.9883 66.7534 25.9269 66.7534 25.8507V19.7385C66.7534 17.8123 67.5598 16.9604 68.7921 16.9604C69.9342 16.9604 70.4717 17.7668 70.4717 19.3348V25.8507C70.4717 25.9269 70.5331 25.9883 70.6094 25.9883H73.9194C73.9956 25.9883 74.057 25.9269 74.057 25.8507V19.7608C74.057 17.857 74.7964 16.9604 76.051 16.9604C77.1708 16.9604 77.7762 17.7221 77.7762 19.3125V25.8507C77.7762 25.9269 77.8376 25.9883 77.9139 25.9883H81.2239C81.3001 25.9883 81.3615 25.9269 81.3615 25.8507V18.641C81.3615 15.9532 80.2418 14.1164 77.3968 14.1164C75.7171 14.1164 74.4625 14.945 73.6562 16.2666C73.074 14.7879 71.8863 14.1164 70.162 14.1164C68.4377 14.1164 67.2277 15.1692 66.6902 16.1773L66.6074 14.5377C66.6037 14.4651 66.5432 14.4075 66.4707 14.4075H63.3114C63.2351 14.4075 63.1737 14.4689 63.1737 14.5451V25.8516C63.1737 25.9278 63.2351 25.9892 63.3114 25.9892L63.3058 25.9883ZM59.5847 26.1445C60.2841 26.1445 61.1025 26.0246 61.7201 25.8786C61.7814 25.8637 61.8242 25.8088 61.8242 25.7446V23.3684C61.8242 23.2782 61.7387 23.2121 61.6512 23.2363C61.309 23.3293 60.9165 23.4112 60.458 23.4112C59.3159 23.4112 58.89 23.0308 58.89 22.1119V17.4078H61.7145C61.7508 17.4078 61.7796 17.3789 61.7796 17.3427V14.4717C61.7796 14.4354 61.7508 14.4065 61.7145 14.4065H58.89V10.373C58.89 10.3367 58.8611 10.3079 58.8249 10.3079H55.3716C55.3354 10.3079 55.3065 10.3367 55.3065 10.373V14.4065H53.6027C53.5664 14.4065 53.5376 14.4354 53.5376 14.4717V17.3427C53.5376 17.3789 53.5664 17.4078 53.6027 17.4078H55.3065V22.3584C55.3065 24.8444 56.6504 26.1436 59.5847 26.1436M47.1966 23.3898C45.6286 23.3898 44.7553 22.2477 44.7553 20.1867C44.7553 18.1258 45.6286 17.006 47.1966 17.006C48.7646 17.006 49.638 18.1481 49.638 20.1867C49.638 22.2254 48.7646 23.3898 47.1966 23.3898ZM47.1966 26.2794C50.8479 26.2794 53.267 23.8157 53.267 20.2983V20.0742C53.267 16.58 50.8479 14.1154 47.1966 14.1154C43.5453 14.1154 41.1263 16.5791 41.1263 20.0742V20.2983C41.1263 23.8148 43.523 26.2794 47.1966 26.2794ZM28.8321 25.9883H32.1421C32.2184 25.9883 32.2797 25.9269 32.2797 25.8507V19.6259C32.2797 17.9239 33.153 16.9828 34.4523 16.9828C35.8185 16.9828 36.3114 17.9007 36.3114 19.4687V25.8497C36.3114 25.926 36.3728 25.9874 36.4491 25.9874H39.7591C39.8354 25.9874 39.8967 25.926 39.8967 25.8497V18.5499C39.8967 15.9737 38.7993 14.1145 35.865 14.1145C34.0282 14.1145 32.8861 15.0557 32.303 16.0406V10.4437C32.303 10.3674 32.2416 10.306 32.1653 10.306H28.833C28.7568 10.306 28.6954 10.3674 28.6954 10.4437V25.8497C28.6954 25.926 28.7568 25.9874 28.833 25.9874L28.8321 25.9883Z" fill="#0D0D0D"/>
<path d="M11.4892 26.2887C8.2052 26.2887 5.54065 23.5637 5.54065 20.2035C5.54065 16.8433 8.20241 14.1182 11.4892 14.1182C14.7759 14.1182 17.4377 16.8433 17.4377 20.2035C17.4377 23.5637 14.7759 26.2887 11.4892 26.2887ZM22.285 15.0148C21.874 13.5556 21.2797 12.1326 20.4287 10.7264C20.4287 10.7264 19.6261 9.39738 19.2894 8.99467C19.2075 8.89051 19.0401 9.00584 19.1034 9.12395C19.1992 9.32205 19.2847 9.56386 19.2243 9.80381C19.1257 10.093 18.803 10.2967 18.5044 10.1916C18.4254 10.1582 18.351 10.1116 18.2849 10.0428C17.978 9.72661 17.8218 9.20579 17.6218 8.54268C17.4433 7.95396 17.2247 7.21923 16.8248 6.42591C16.1784 5.13781 15.4111 4.54073 15.3814 4.51562C15.3432 4.48586 15.2884 4.48586 15.2474 4.51562C15.2065 4.54631 15.1898 4.5956 15.2065 4.64489C15.2093 4.65605 15.532 5.71815 14.9108 6.52171C14.6643 6.8435 14.2867 7.03602 13.8477 7.06392C13.4069 7.09089 12.9716 6.9458 12.7084 6.68446C12.0593 6.03251 11.983 4.87647 11.996 4.24591C12.037 2.14309 12.6722 0.670843 13.0042 0.183503C13.034 0.142582 13.0321 0.0849194 12.9986 0.0430678C12.9661 0.00400622 12.914 -0.0118044 12.8675 0.00958644C10.2959 1.12749 8.43306 3.03128 7.48349 5.51727C6.94686 6.9951 6.71435 7.66937 6.52463 8.09347C6.34978 8.48129 6.18795 8.66079 6.02334 8.75938C5.93312 8.81425 5.82059 8.84494 5.70805 8.85052C5.54065 8.83378 4.71105 8.68032 5.43369 7.29271C5.49414 7.17738 5.33511 7.05927 5.24768 7.15506L4.67757 7.78284C4.65246 7.81074 4.62549 7.83771 4.60038 7.86561L4.50458 7.9707C4.48784 7.99024 4.47482 8.00605 4.46087 8.02558C2.66404 10.0791 1.40756 12.7046 0.683992 15.1348C0.0366861 17.4729 -0.00516555 19.3358 0.000414671 20.0463V20.2035C0.000414671 23.3433 1.19458 26.2934 3.36622 28.5152C5.53507 30.7334 8.4219 31.9582 11.4892 31.9582C14.5564 31.9582 17.4433 30.7362 19.6121 28.5152C21.781 26.2943 22.9779 23.3433 22.9779 20.2026C22.9779 18.2011 22.7203 16.5726 22.285 15.0139" fill="#FF4000"/>
</svg>