<svg xmlns="http://www.w3.org/2000/svg" width="64" height="64" fill="none"><path fill="#F3F3F3" d="M41.336 0h-19.21C15.751 0 12.57 0 9.14 1.084a13.48 13.48 0 0 0-8.057 8.057C0 12.57 0 15.756 0 22.125v19.21c0 6.373 0 9.556 1.084 12.984a13.48 13.48 0 0 0 8.057 8.057c3.429 1.085 6.615 1.085 12.984 1.085h19.21c6.373 0 9.556 0 12.984-1.084a13.48 13.48 0 0 0 8.057-8.058c1.085-3.428 1.085-6.614 1.085-12.983v-19.21c0-6.37 0-9.556-1.084-12.985a13.48 13.48 0 0 0-8.058-8.057C50.892 0 47.706 0 41.337 0"/><path fill="#0E0E0E" fill-rule="evenodd" d="M54.055 15.36a5.474 5.474 0 0 0-5.475-5.475H34.684a5.474 5.474 0 0 0-5.475 5.474v5.612a5.476 5.476 0 0 1-5.474 5.475H15.36a5.474 5.474 0 0 0-5.474 5.474v16.658a5.473 5.473 0 0 0 5.474 5.475h13.897a5.473 5.473 0 0 0 5.474-5.474v-5.613a5.473 5.473 0 0 1 5.475-5.474h8.373a5.476 5.476 0 0 0 5.475-5.475z" clip-rule="evenodd"/></svg>